<?xml version="1.0" encoding="UTF-8"?>
<svg id="Layer_1" data-name="Layer 1" xmlns="http://www.w3.org/2000/svg" viewBox="0 0 300 132">
  <g>
    <path d="M133.28,81.08c-1.51,3.39-3.86,6.1-7.91,6.1-3.77,0-5.75-2.32-6.03-5.03-.19-1.64-.09-3.78.19-5.61l.38-2.32h28.08l1.32-7.35c.66-3.97.85-8.81-.38-12.38-2.26-6.97-8.48-11.9-17.24-11.9s-14.98,4.35-18.84,10.45c-2.17,3.48-3.77,8.23-4.43,12.19l-1.6,9.19c-.66,3.97-.85,8.52.38,12.1,0,.02.02.04.02.06-4.85.04-9.28.06-9.79.06-6.41,0-6.69-4.26-5.75-9.77l3.49-20.9h11.02l1.98-11.52h-11.02l2.36-13.55h-13l-2.36,13.55h-11.64c-3.37-11.34-13.02-19.35-26.81-19.35h-1.05c-20.91,0-32.35,15.03-35.62,34.09l-5.42,31.68c-.65,3.76-.92,8.99-.52,12.35,1.44,14.36,11.89,25.23,27.97,25.23h1.05c20.91,0,32.41-15.03,35.68-34.09l5.36-31.68c.35-1.99.58-4.39.67-6.72h8.36l-3.58,20.8c-.56,3.39-.85,6.29-.75,8.52.28,9.39,5.65,13.64,16.39,13.64,1.23,0,28.96,0,30.84-.2v-.04c8.34-.2,14.45-4.48,18.22-10.43,1.32-2.03,2.36-4.55,3.21-7.16h-13.19ZM123.67,58.44c1.7-2.81,4.05-4.65,7.54-4.65,3.77,0,5.47,2.32,5.75,5.03.19,1.55,0,3.58-.28,5.32h-15.08c.47-2.13,1.13-4.16,2.07-5.71ZM54.63,61.32l-5.29,31.14c-1.7,9.67-7.06,17.32-16.2,17.32h-.52c-6.4,0-10.46-4.03-10.98-9.53-.26-2.15.13-5.64.52-8.05l5.29-31.14c1.7-9.66,6.99-17.32,16.14-17.32h.52c6.4,0,10.52,4.03,11.04,9.53.26,2.15-.13,5.64-.52,8.05Z" fill="#fff"/>
    <path d="M189.32,44.44l-2.26,7.35h-.09c-2.26-5.03-7.54-8.32-13.47-8.32-9.33,0-15.33,6-18.53,13.94-1.23,2.9-1.98,6.48-2.54,9.48l-1.6,9.1c-.47,2.9-.66,6.48-.38,8.81.94,8.71,6.47,13.84,13.91,13.84,4.81,0,8.48-1.93,12.25-5.9h.1s-.66,3.19-1.04,5.61l-.19,1.16c-1.13,6.87-4.43,10.35-9.05,10.35-4.14,0-6.88-2.51-7.44-6.29h-12.72c.85,11.81,8.81,18.83,19.26,18.83,9.8,0,17.67-6.35,20.97-15.74.85-2.23,1.7-5.32,2.26-8.61l9.14-53.61h-8.57ZM180.93,67.86l-.38,2.61c-1.6,9.87-7.16,15.39-11.87,15.39-3.77,0-5.18-2.71-5.37-6.1-.09-1.35.1-3.09.47-5.32l1.13-7.16c.94-5.9,4.33-11.13,9.52-11.13,6.12,0,7.35,6.48,6.5,11.71Z" fill="#fff"/>
    <path d="M237.48,55.49c-2.26-6.87-8.17-11.14-16.93-11.14s-14.98,3.41-18.84,9.42c-2.17,3.44-3.77,8.11-4.43,12.02l-1.6,9.07c-.66,3.91-.85,8.4.38,11.93,2.26,6.87,8.48,12.02,17.24,12.02s14.98-4.29,18.84-10.31c2.17-3.44,3.77-8.11,4.43-12.02l1.6-9.06c.66-3.91.54-8.4-.69-11.93ZM225.26,66.47l-1.41,8.68c-.47,2.48-1.23,4.87-2.26,6.58-1.7,2.77-4.05,4.58-7.54,4.58-3.77,0-5.46-2.29-5.75-4.96-.19-1.62,0-3.72.28-5.53l1.41-8.68c.47-2.48,1.22-4.87,2.26-6.58,1.7-2.77,4.05-4.58,7.54-4.58,3.77,0,5.46,2.29,5.75,4.96.19,1.62,0,3.72-.28,5.53Z" fill="#fff"/>
  </g>
  <g>
    <path d="M86.16,122.4l2.54-14.35-6.79,14.05h-3.37l-1.87-14.03-2.54,14.34h-3.73l3.32-18.83h6.17l1.37,13.46,6.5-13.46h5.4l-3.32,18.82h-3.7Z" fill="#fff"/>
    <path d="M104.34,121.65c-1.69.77-3.8,1.03-5.4,1.03-4.15,0-6.29-2.11-6.29-5.47,0-3.93,3.2-8.03,8.45-8.03,2.94,0,5.04,1.45,5.04,3.85,0,3.3-3.59,4.49-9.4,4.36,0,.37.15.95.45,1.32.56.66,1.54,1,2.79,1,1.57,0,2.91-.32,4.06-.82l.3,2.75ZM102.15,113.04c0-.63-.59-1.08-1.57-1.08-1.99,0-3.11,1.45-3.41,2.67,3.32.03,4.98-.4,4.98-1.56v-.03Z" fill="#fff"/>
    <path d="M122.57,103.57l-3.32,18.83-3.75-.02.27-1.48c-1.29,1.72-2.59,1.78-4.31,1.78-2.5,0-4.57-1.74-4.57-4.89,0-4.49,3.7-8.61,9.27-8.61.6,0,1.04-.02,1.67.19l1.02-5.81h3.71ZM117.3,112.37c-.33-.24-.75-.31-1.47-.31-2.59,0-4.42,2.64-4.42,5.12,0,1.56.78,2.43,2.05,2.43s2.64-1.14,3.21-3.6l.64-3.64Z" fill="#fff"/>
    <path d="M120.97,122.38l2.33-13.19h3.74l-2.36,13.19h-3.71ZM125.68,107.31c-.95,0-1.68-.67-1.68-1.73.02-1.21.95-2.02,2.02-2.02s1.75.69,1.75,1.75c0,1.26-.95,2-2.06,2h-.02Z" fill="#fff"/>
    <path d="M135.67,122.4l.49-2.57c-1.35,2.14-2.76,2.85-4.48,2.85-2.65,0-4.45-1.8-4.45-4.49,0-4.36,3.28-9,10.53-9,1.75,0,2.63.29,3.86.63l-2.24,12.58h-3.71ZM137.55,112.17c-.33-.05-.61-.11-1.03-.11-2.8,0-4.84,3.01-4.84,5.41,0,1.27.57,2.14,1.78,2.14,1.29,0,2.89-1.29,3.55-4.46l.55-2.98Z" fill="#fff"/>
  </g>
  <g>
    <path d="M294.86,66.35c-23.95-16.21-50.65-32.9-50.65-32.9,7.99,8.26,25.97,35.44,25.97,35.44,6.54,10.24-38.31,34.67-38.31,34.67,0,0,74.83-29.19,62.98-37.21" fill="#f6921f"/>
    <path d="M244.21,33.45s.22.14.63.39c-20.74-14.16-42.84-27.96-42.84-27.96-9.33-4.19-23.12-2.2-26.74,14.6,4.41-.35,8.94.36,13.15,2.38,0,0,56.91,23.59,81.09,44.98-3.38-5.06-18.22-27.1-25.28-34.39Z" fill="#cd164a"/>
  </g>
</svg>